<?xml version="1.0" standalone="no"?><!-- Generator: Gravit.io --><svg xmlns="http://www.w3.org/2000/svg" xmlns:xlink="http://www.w3.org/1999/xlink" style="isolation:isolate" viewBox="0 0 321 440" width="321" height="440"><defs><clipPath id="_clipPath_S0ZHAmQafMirahIXtyBfwObIuCSPCOji"><rect width="321" height="440"/></clipPath></defs><g clip-path="url(#_clipPath_S0ZHAmQafMirahIXtyBfwObIuCSPCOji)"><g><g opacity="0.35"><path d=" M 284.118 436.56 L 11.877 436.714 C 5.458 436.714 0.25 431.14 0.25 424.259 L 0 15.197 C 0 10.2 3.786 6.125 8.437 6.125 L 285.425 5.952 C 301.204 5.952 313.985 19.636 314.004 36.549 L 314.216 404.233 C 314.235 422.068 300.762 436.541 284.118 436.56 L 284.118 436.56 Z " fill="rgb(0,0,0)"/></g><path d=" M 290.845 433.677 L 18.604 433.831 C 12.185 433.831 6.977 428.257 6.977 421.377 L 6.727 12.314 C 6.727 7.317 10.513 3.242 15.164 3.242 L 292.152 3.069 C 307.931 3.069 320.712 16.754 320.731 33.667 L 320.942 401.35 C 320.962 419.186 307.489 433.658 290.845 433.677 L 290.845 433.677 Z " fill="rgb(58,59,61)"/><rect x="6.458" y="345.499" width="314.523" height="3.459" transform="matrix(1,0,0,1,0,0)" fill="rgb(43,43,43)"/><rect x="27.426" y="3.223" width="12.973" height="430.607" transform="matrix(1,0,0,1,0,0)" fill="rgb(43,44,45)"/><rect x="239.818" y="3.089" width="21.622" height="430.588" transform="matrix(1,0,0,1,0,0)" fill="rgb(43,44,45)"/><rect x="6.458" y="208.965" width="314.523" height="136.534" transform="matrix(1,0,0,1,0,0)" fill="rgb(244,151,59)"/><path d=" M 321 213.29 L 6.458 208.965 L 321 208.965 L 321 213.29 Z " fill="rgb(255,187,125)"/><path d=" M 265.687 439.616 L 248.812 439.635 C 247.371 439.635 246.199 438.462 246.199 437.021 L 245.93 1.493 C 245.93 0.167 247.005 -0.909 248.332 -0.909 L 263.919 -0.909 C 265.918 -0.909 267.551 0.705 267.551 2.724 L 267.801 437.501 C 267.82 438.674 266.859 439.616 265.687 439.616 L 265.687 439.616 Z " fill="rgb(87,89,91)"/><line x1="253.733" y1="-0.601" x2="255.097" y2="439.942" vector-effect="non-scaling-stroke" stroke-width="0.2" stroke="rgb(25,26,28)" stroke-linejoin="miter" stroke-linecap="butt" stroke-miterlimit="10"/><line x1="258.96" y1="-0.909" x2="261.17" y2="439.616" vector-effect="non-scaling-stroke" stroke-width="0.2" stroke="rgb(25,26,28)" stroke-linejoin="miter" stroke-linecap="butt" stroke-miterlimit="10"/><line x1="249.101" y1="-0.64" x2="250.869" y2="440" vector-effect="non-scaling-stroke" stroke-width="0.2" stroke="rgb(25,26,28)" stroke-linejoin="miter" stroke-linecap="butt" stroke-miterlimit="10"/><line x1="264.053" y1="-0.275" x2="265.687" y2="439.616" vector-effect="non-scaling-stroke" stroke-width="0.2" stroke="rgb(25,26,28)" stroke-linejoin="miter" stroke-linecap="butt" stroke-miterlimit="10"/><rect x="239.799" y="208.908" width="5.958" height="136.649" transform="matrix(1,0,0,1,0,0)" fill="rgb(229,133,46)"/></g><g><g opacity="0.2"><path d=" M 220.374 113.161 C 220.374 113.161 216.31 102.324 205.744 93.79 L 189.353 80.244 C 188.676 57.215 186.915 32.697 182.58 22.537 C 181.361 19.557 177.975 17.931 174.859 18.744 C 172.014 19.421 168.357 20.911 165.512 23.891 L 133.679 27.549 L 126.499 30.258 C 126.228 30.394 125.957 30.665 125.957 30.936 L 125.957 32.968 C 125.957 33.374 126.364 33.78 126.77 33.78 L 127.989 33.78 C 127.989 33.78 131.511 39.199 138.013 40.011 C 138.555 40.011 138.962 39.605 138.962 39.063 L 138.691 34.187 C 138.691 33.238 139.368 32.561 140.181 32.426 L 150.747 31.613 C 150.747 31.613 155.623 32.019 153.998 35.406 C 153.998 35.406 152.914 39.47 148.579 38.792 C 148.579 38.792 147.089 38.25 146.683 37.709 C 146.683 37.709 146.547 39.741 148.715 40.96 L 102.658 95.822 L 96.562 107.336 L 96.562 116.683 C 96.562 116.683 111.192 112.89 123.113 98.531 L 150.747 67.51 L 119.455 137.002 L 121.352 140.253 L 123.79 136.461 L 125.009 136.867 L 125.415 135.783 L 127.854 135.783 L 126.905 133.074 L 129.073 133.616 L 127.989 131.177 L 130.563 131.313 L 129.073 128.739 L 131.511 128.875 L 130.292 126.436 L 132.866 126.436 L 131.647 123.863 L 134.22 123.998 L 132.866 121.966 L 135.44 121.831 L 134.22 119.392 L 136.659 119.528 L 135.304 117.089 L 138.149 117.089 L 136.659 114.787 L 139.233 114.787 L 138.149 112.619 L 140.858 112.484 L 139.097 110.045 L 141.806 110.181 L 140.722 108.284 L 143.296 108.284 L 141.806 105.44 L 144.515 105.575 L 143.025 103.272 L 145.87 103.408 L 144.515 100.698 L 146.683 100.969 L 145.464 98.802 L 148.308 98.802 L 146.818 96.228 L 149.663 96.364 L 148.173 93.655 L 150.882 94.061 L 149.528 91.487 L 152.372 91.758 L 150.611 89.455 L 153.592 89.455 L 151.695 86.881 L 154.54 87.017 L 153.321 84.578 L 156.03 84.714 L 154.133 82.14 L 156.978 82.14 L 155.623 79.973 L 158.604 79.837 L 156.978 77.535 L 159.552 77.535 L 158.197 75.367 L 161.042 75.367 L 159.281 72.929 L 161.719 72.793 L 160.5 70.897 L 162.938 71.439 C 161.584 76.315 159.01 87.965 161.584 98.937 C 162.261 101.647 162.667 104.356 163.074 107.065 L 162.667 111.806 C 162.667 111.806 157.52 127.249 157.926 138.086 C 157.791 138.357 157.791 138.492 157.655 138.763 C 157.655 138.763 154.133 146.62 162.667 147.839 L 162.667 150.684 C 162.667 151.226 163.074 151.768 163.616 151.903 L 165.648 152.445 L 165.648 154.342 L 163.209 154.342 C 162.938 154.342 162.667 154.612 162.667 154.883 L 162.667 158.947 C 162.667 158.947 162.667 159.083 162.803 159.083 L 165.648 160.573 L 165.648 158.405 C 165.648 158.135 165.783 157.999 166.054 157.999 C 167.68 157.863 173.369 157.728 173.369 164.095 C 173.369 164.095 173.64 167.888 172.15 171.816 C 170.931 175.067 170.524 178.589 171.201 182.111 C 171.337 182.789 171.472 183.601 171.743 184.414 L 173.098 190.916 C 173.233 191.594 173.775 192 174.453 192 L 180.142 192 C 180.819 192 181.361 191.458 181.497 190.916 L 182.851 183.466 L 184.612 164.637 L 184.612 142.015 C 187.321 139.305 189.218 135.241 189.353 129.416 C 189.353 129.416 189.895 110.723 189.489 88.642 C 193.824 92.977 207.641 106.523 220.374 113.161 L 220.374 113.161 Z  M 164.699 65.749 C 164.564 66.562 164.428 67.239 164.158 67.917 L 163.209 65.885 L 164.699 65.749 Z  M 161.719 68.052 L 163.887 68.594 C 163.887 68.729 163.887 68.729 163.751 68.865 C 163.751 68.865 163.48 69.407 163.209 70.49 L 161.719 68.052 Z " fill-rule="evenodd" fill="rgb(0,0,0)"/></g><path d=" M 224.438 111.806 C 224.438 111.806 220.374 100.969 209.808 92.435 L 193.417 78.889 C 192.74 55.861 190.979 31.342 186.644 21.182 C 185.425 18.202 182.039 16.577 178.923 17.389 C 176.078 18.067 172.421 19.557 169.576 22.537 L 137.742 26.194 L 130.563 28.904 C 130.292 29.039 130.021 29.31 130.021 29.581 L 130.021 31.613 C 130.021 32.019 130.427 32.426 130.834 32.426 L 132.053 32.426 C 132.053 32.426 135.575 37.844 142.077 38.657 C 142.619 38.657 143.025 38.25 143.025 37.709 L 142.754 32.832 C 142.754 31.884 143.432 31.206 144.245 31.071 L 154.811 30.258 C 154.811 30.258 159.687 30.665 158.062 34.051 C 158.062 34.051 156.978 38.115 152.643 37.438 C 152.643 37.438 151.153 36.896 150.747 36.354 C 150.747 36.354 150.611 38.386 152.779 39.605 L 106.722 94.467 L 100.626 105.982 L 100.626 115.328 C 100.626 115.328 115.12 111.536 127.176 97.177 L 154.811 66.156 L 123.519 135.648 L 125.415 138.899 L 127.854 135.106 L 129.073 135.512 L 129.479 134.429 L 131.918 134.429 L 130.969 131.719 L 133.137 132.261 L 132.053 129.823 L 134.627 129.958 L 133.137 127.384 L 135.575 127.52 L 134.356 125.082 L 136.93 125.082 L 135.71 122.508 L 138.284 122.643 L 136.93 120.611 L 139.503 120.476 L 138.284 118.038 L 140.722 118.173 L 139.368 115.735 L 142.213 115.735 L 140.722 113.432 L 143.296 113.432 L 142.213 111.265 L 144.922 111.129 L 143.161 108.691 L 145.87 108.826 L 144.786 106.93 L 147.36 106.93 L 145.87 104.085 L 148.579 104.221 L 147.089 101.918 L 149.934 102.053 L 148.579 99.344 L 150.747 99.615 L 149.528 97.448 L 152.372 97.448 L 150.882 94.874 L 153.727 95.009 L 152.237 92.3 L 154.946 92.706 L 153.592 90.132 L 156.436 90.403 L 154.675 88.101 L 157.655 88.101 L 155.759 85.527 L 158.604 85.662 L 157.384 83.224 L 160.094 83.359 L 158.197 80.786 L 161.042 80.786 L 159.687 78.618 L 162.667 78.483 L 161.042 76.18 L 163.616 76.18 L 162.261 74.012 L 165.106 74.012 L 163.345 71.574 L 165.783 71.439 L 164.564 69.542 L 167.002 70.084 C 165.648 74.961 163.074 86.61 165.648 97.583 C 166.325 100.292 166.731 103.001 167.138 105.711 L 166.731 110.452 C 166.731 110.452 161.584 125.895 161.99 136.731 C 161.855 137.002 161.855 137.138 161.719 137.409 C 161.719 137.409 158.197 145.265 166.731 146.485 L 166.731 149.329 C 166.731 149.871 167.138 150.413 167.68 150.549 L 169.712 151.09 L 169.712 152.987 L 167.273 152.987 C 167.002 152.987 166.731 153.258 166.731 153.529 L 166.731 157.593 C 166.731 157.593 166.731 157.728 166.867 157.728 L 169.712 159.218 L 169.712 157.051 C 169.712 156.78 169.847 156.644 170.118 156.644 C 171.743 156.509 177.433 156.373 177.433 162.74 C 177.433 162.74 177.704 166.533 176.214 170.462 C 174.994 173.713 174.588 177.235 175.265 180.757 C 175.401 181.434 175.536 182.247 175.807 183.059 L 177.162 189.562 C 177.297 190.239 177.839 190.645 178.516 190.645 L 184.206 190.645 C 184.883 190.645 185.425 190.103 185.56 189.562 L 186.915 182.111 L 188.676 163.282 L 188.676 140.66 C 191.385 137.951 193.282 133.887 193.417 128.062 C 193.417 128.062 193.959 109.368 193.553 87.288 C 197.888 91.623 211.705 105.169 224.438 111.806 L 224.438 111.806 Z  M 168.763 64.395 C 168.628 65.208 168.492 65.885 168.221 66.562 L 167.273 64.53 L 168.763 64.395 Z  M 165.783 66.698 L 167.95 67.239 C 167.95 67.375 167.95 67.375 167.815 67.51 C 167.815 67.51 167.544 68.052 167.273 69.136 L 165.783 66.698 Z " fill-rule="evenodd" fill="rgb(35,33,38)"/><path d=" M 167.544 101.376 L 166.596 110.316 C 166.596 110.316 160.229 129.416 162.261 140.118 L 170.389 132.668 L 174.588 108.826 L 167.544 101.376 L 167.544 101.376 Z " fill="rgb(228,232,235)"/><path d=" M 192.334 85.933 C 192.334 85.933 209.131 103.95 224.438 111.806 C 224.438 111.806 220.374 100.969 209.808 92.435 L 190.573 76.451 L 192.334 85.933 L 192.334 85.933 Z  M 166.731 144.724 L 166.731 149.058 C 166.731 149.6 167.138 150.142 167.68 150.278 L 169.712 150.819 L 169.712 152.716 L 167.273 152.716 C 167.002 152.716 166.731 152.987 166.731 153.258 L 166.731 157.322 C 166.731 157.322 166.731 157.457 166.867 157.457 L 169.712 158.947 L 169.712 156.78 C 169.712 156.509 169.847 156.373 170.118 156.373 C 171.743 156.238 177.433 156.103 177.433 162.469 C 177.433 162.469 177.704 166.262 176.214 170.191 C 174.994 173.442 174.588 176.964 175.265 180.486 C 175.401 181.163 175.536 181.976 175.807 182.789 L 177.162 189.291 C 177.297 189.968 177.839 190.374 178.516 190.374 L 184.206 190.374 C 184.883 190.374 185.425 189.833 185.56 189.291 L 186.915 181.84 L 188.676 161.521 L 188.676 138.899 L 166.731 144.724 L 166.731 144.724 Z " fill="rgb(209,215,219)"/><path d=" M 166.731 144.724 L 166.731 147.839 C 178.246 149.871 185.425 145.672 188.812 142.692 L 188.812 138.763 L 166.731 144.724 L 166.731 144.724 Z " fill="rgb(175,175,175)"/><path d=" M 187.051 167.346 C 187.186 167.075 185.696 184.821 185.696 184.821 C 185.696 184.821 181.768 177.099 187.051 167.346 Z " fill="rgb(152,152,153)"/><path d=" M 169.982 150.413 L 168.086 149.736 C 167.68 149.6 167.409 149.194 167.409 148.788 L 167.409 144.588 L 166.731 144.724 L 166.731 149.058 C 166.731 149.6 167.138 150.142 167.68 150.278 L 169.712 150.819 L 169.712 152.716 L 170.253 152.716 L 170.253 150.549 C 170.118 150.549 170.118 150.413 169.982 150.413 Z  M 167.273 152.851 C 167.002 152.851 166.731 153.122 166.731 153.393 L 166.731 157.457 C 166.731 157.457 166.731 157.593 166.867 157.593 L 169.712 159.083 L 169.712 158.405 L 167.815 157.322 C 167.544 157.186 167.409 156.915 167.409 156.644 L 167.409 152.851 L 167.273 152.851 L 167.273 152.851 Z  M 175.672 178.996 C 175.536 178.318 175.536 177.776 175.536 177.099 C 175.672 172.493 177.297 169.107 177.297 169.107 C 179.194 163.417 177.297 159.218 177.297 159.218 C 175.265 155.019 169.982 156.509 169.982 156.509 C 171.608 156.373 177.297 156.238 177.297 162.605 C 177.297 162.605 177.568 166.262 176.214 170.326 C 175.13 173.442 174.588 176.693 175.13 179.808 C 175.265 180.757 175.536 181.84 175.807 182.924 L 177.162 189.426 C 177.297 190.103 177.839 190.51 178.516 190.51 L 184.206 190.51 C 184.748 190.51 185.154 190.239 185.29 189.833 L 178.652 189.833 C 178.11 189.833 177.568 189.426 177.433 188.884 C 177.162 186.582 176.078 181.163 175.672 178.996 L 175.672 178.996 Z " fill="rgb(175,175,175)"/><path d=" M 178.787 189.968 L 185.425 189.968 L 187.051 181.976 L 188.812 163.147 L 188.812 142.827 L 187.999 163.147 L 187.999 163.282 L 186.102 181.705 L 186.102 181.84 L 184.883 188.478 C 184.748 188.884 184.477 189.155 184.07 189.291 L 178.787 189.968 L 178.787 189.968 Z " fill="rgb(228,232,235)"/><path d=" M 125.28 138.899 L 123.383 135.512 L 156.978 61.144 L 172.556 46.107 L 170.524 61.144 L 168.628 64.259 L 167.138 64.259 L 168.628 67.375 L 165.648 66.698 L 167.95 70.084 L 164.564 69.407 L 165.783 71.303 L 163.345 71.574 L 165.106 74.012 L 162.126 74.012 L 163.48 76.451 L 160.906 76.451 L 162.532 78.754 L 159.552 78.889 L 160.906 81.057 L 158.062 81.057 L 159.958 83.495 L 157.249 83.359 L 158.604 85.798 L 155.623 85.662 L 157.52 88.236 L 154.54 88.236 L 156.301 90.539 L 153.592 90.268 L 154.946 92.842 L 152.237 92.435 L 153.727 95.28 L 150.882 95.009 L 152.372 97.583 L 149.528 97.583 L 150.747 99.75 L 148.579 99.479 L 149.934 102.189 L 147.089 102.053 L 148.579 104.221 L 145.87 104.221 L 147.36 106.93 L 144.786 106.93 L 145.735 108.962 L 143.025 108.826 L 144.786 111.265 L 142.077 111.265 L 143.161 113.568 L 140.722 113.568 L 142.077 115.735 L 139.368 115.735 L 140.722 118.309 L 138.284 118.038 L 139.503 120.476 L 136.93 120.747 L 138.284 122.779 L 135.71 122.508 L 136.93 125.082 L 134.22 125.082 L 135.575 127.52 L 133.137 127.384 L 134.627 129.958 L 132.053 129.958 L 133.001 132.261 L 130.834 131.855 L 131.782 134.564 L 129.344 134.564 L 128.937 135.512 L 127.718 135.106 L 125.28 138.899 L 125.28 138.899 Z " fill="rgb(209,215,219)"/><path d=" M 170.524 61.144 L 172.556 46.107 L 156.978 61.144 L 151.424 73.471 L 166.867 56.267 L 168.221 64.259 L 168.628 64.259 L 170.524 61.144 L 170.524 61.144 Z " fill="rgb(185,185,186)"/><path d=" M 166.867 56.267 L 151.424 73.471 L 147.225 82.953 L 157.52 88.236 L 155.623 85.662 L 158.604 85.798 L 157.249 83.359 L 159.958 83.495 L 158.062 81.057 L 160.906 81.057 L 159.552 78.889 L 162.532 78.754 L 160.906 76.451 L 163.48 76.451 L 162.126 74.012 L 165.106 74.012 L 163.345 71.574 L 165.783 71.303 L 164.564 69.407 L 166.731 69.813 L 165.648 66.698 L 167.815 67.51 L 167.138 64.259 L 168.628 64.259 L 166.867 56.267 L 166.867 56.267 Z " fill="rgb(228,232,235)"/><path d=" M 129.344 134.564 L 131.782 134.564 L 131.647 134.022 L 129.344 134.022 L 129.344 134.564 Z  M 134.627 129.958 L 132.053 129.958 L 132.053 129.281 L 134.22 129.281 L 134.627 129.958 Z  M 134.22 125.082 L 136.93 125.082 L 136.659 124.675 L 134.22 124.675 L 134.22 125.082 Z  M 136.93 120.747 L 139.503 120.476 L 139.233 120.07 L 136.93 120.07 L 136.93 120.747 Z  M 139.368 115.735 L 142.077 115.735 L 141.806 115.193 L 139.368 115.193 L 139.368 115.735 Z  M 142.077 111.265 L 144.786 111.265 L 144.515 110.723 L 142.077 110.723 L 142.077 111.265 Z  M 144.786 106.93 L 147.36 106.93 L 147.089 106.523 L 144.786 106.523 L 144.786 106.93 Z  M 147.36 102.053 L 149.934 102.189 L 149.528 101.511 L 147.36 101.511 L 147.36 102.053 Z  M 149.528 97.583 L 152.372 97.583 L 152.101 97.041 L 149.528 97.041 L 149.528 97.583 Z  M 152.237 92.435 L 154.946 92.842 L 154.675 92.435 L 152.372 91.894 L 152.237 92.435 Z  M 154.54 88.236 L 157.52 88.236 L 157.249 87.83 L 154.54 87.83 L 154.54 88.236 L 154.54 88.236 Z  M 157.249 83.359 L 159.958 83.495 L 159.552 82.953 L 157.249 82.682 L 157.249 83.359 L 157.249 83.359 Z  M 159.552 78.889 L 162.532 78.754 L 162.126 78.212 L 159.552 78.212 L 159.552 78.889 Z  M 162.126 74.012 L 165.106 74.012 L 164.699 73.471 L 162.126 73.471 L 162.126 74.012 L 162.126 74.012 Z " fill="rgb(165,165,165)"/><path d=" M 164.564 69.407 L 167.002 69.949 L 167.138 69.407 L 164.564 68.865 L 164.564 69.407 Z " fill="rgb(185,185,186)"/><path d=" M 153.727 38.657 L 106.586 94.332 L 100.49 105.846 L 100.49 115.193 C 100.49 115.193 115.12 111.4 127.041 97.041 L 172.421 46.107 L 168.899 32.697 L 153.727 38.657 L 153.727 38.657 Z " fill="rgb(209,215,219)"/><path d=" M 168.899 32.697 L 153.592 38.657 L 141.264 53.287 L 155.081 42.314 C 160.635 43.94 163.751 42.314 163.751 42.314 L 166.189 53.016 L 172.285 46.107 L 168.899 32.697 L 168.899 32.697 Z " fill="rgb(152,152,153)"/><path d=" M 106.586 94.332 L 101.98 105.711 L 101.98 111.536 C 101.98 112.348 102.793 113.025 103.606 112.755 C 107.128 111.536 115.256 108.555 118.642 105.575 C 118.642 105.575 112.682 111.536 100.49 115.328 L 100.49 105.982 L 106.586 94.332 L 106.586 94.332 Z " fill="rgb(175,175,175)"/><line x1="108.347" y1="94.332" x2="119.861" y2="81.192"/><path d=" M 125.415 99.073 L 166.325 53.016 L 163.887 42.314 L 159.281 42.992 L 130.021 76.451 L 125.415 99.073 L 125.415 99.073 Z " fill="rgb(228,232,235)"/><path d=" M 173.233 21.995 L 137.607 26.059 L 130.427 28.768 C 130.156 28.904 129.886 29.175 129.886 29.445 L 129.886 31.477 C 129.886 31.884 130.292 32.29 130.698 32.29 L 131.918 32.29 C 131.918 32.29 135.44 37.709 141.942 38.521 C 142.484 38.521 142.89 38.115 142.89 37.573 L 142.619 32.697 C 142.619 31.748 143.296 31.071 144.109 30.936 L 154.675 30.123 C 154.675 30.123 159.552 30.529 157.926 33.916 C 157.926 33.916 156.842 37.98 152.508 37.302 C 152.508 37.302 151.018 36.76 150.611 36.219 C 150.611 36.219 150.476 39.605 155.081 40.282 C 155.081 40.282 160.906 40.689 166.596 36.49 L 173.233 21.995 L 173.233 21.995 Z " fill="rgb(209,215,219)"/><path d=" M 137.878 28.091 L 139.233 27.278 C 139.233 27.278 146.683 27.684 151.56 25.517 C 151.56 25.517 147.496 29.987 137.878 28.091 Z " fill="rgb(152,152,153)"/><path d=" M 132.595 31.748 L 130.969 31.748 C 130.834 31.748 130.698 31.613 130.698 31.477 L 130.698 28.768 L 130.563 28.768 C 130.292 28.904 130.021 29.175 130.021 29.445 L 130.021 31.477 C 130.021 31.884 130.427 32.29 130.834 32.29 L 132.053 32.29 C 132.053 32.29 135.575 37.709 142.077 38.521 C 142.484 38.521 142.89 38.25 143.025 37.844 C 135.575 36.76 132.73 32.019 132.595 31.748 L 132.595 31.748 Z " fill="rgb(175,175,175)"/><path d=" M 159.145 33.78 L 159.145 33.509 C 159.552 29.581 154.675 29.581 154.675 29.581 L 142.89 30.665 L 142.89 32.019 C 143.161 31.613 143.567 31.206 144.245 31.206 L 154.811 30.394 C 154.811 30.394 159.687 30.8 158.062 34.187 C 158.062 34.187 157.655 35.948 156.165 36.896 C 157.52 36.49 158.739 35.406 159.145 33.78 L 159.145 33.78 Z  M 173.233 21.995 L 167.544 22.672 C 165.377 25.517 162.938 30.529 164.564 38.25 C 165.377 37.844 166.054 37.438 166.867 36.896 L 173.233 21.995 L 173.233 21.995 Z " fill="rgb(185,185,186)"/><path d=" M 142.89 30.529 L 155.081 29.445 C 155.081 29.445 159.01 29.716 159.145 32.697 C 159.145 32.697 159.281 34.187 158.468 34.999 L 163.887 34.593 C 163.887 34.593 163.48 28.091 167.409 22.537 L 152.101 24.433 C 152.101 24.433 150.476 28.226 142.89 28.497 L 142.89 30.529 L 142.89 30.529 Z " fill="rgb(228,232,235)"/><path d=" M 165.783 113.432 C 164.564 117.767 162.532 125.759 162.126 132.803 C 165.512 125.353 165.919 118.309 165.783 113.432 Z " fill="rgb(209,215,219)"/><path d=" M 167.544 101.376 L 166.596 110.316 C 166.596 110.316 166.189 111.536 165.648 113.568 C 165.783 118.309 165.377 125.488 161.99 132.938 C 161.855 135.512 161.855 138.086 162.261 140.118 L 170.389 132.668 L 174.588 108.826 L 167.544 101.376 L 167.544 101.376 Z " fill="rgb(175,175,175)"/><path d=" M 178.923 17.389 C 174.317 18.473 167.68 21.589 165.648 29.581 C 165.106 31.884 164.97 34.187 165.377 36.49 C 165.648 38.657 166.189 41.637 167.273 45.024 C 167.95 47.056 168.492 49.088 168.628 51.255 C 169.17 55.861 169.576 63.582 167.815 67.51 C 167.815 67.51 162.396 82.953 165.783 97.448 C 167.544 104.898 168.221 112.619 167.138 120.205 C 166.325 125.759 164.699 131.855 161.719 137.273 C 161.719 137.273 157.926 145.401 167.138 146.485 C 167.138 146.485 193.282 150.278 193.553 128.197 C 193.553 128.197 195.72 42.585 186.644 21.182 C 185.425 18.067 182.039 16.577 178.923 17.389 L 178.923 17.389 Z " fill="rgb(35,33,38)"/><path d=" M 169.305 126.436 C 170.931 121.831 171.472 117.225 171.608 113.296 C 171.743 108.826 170.931 104.356 169.847 99.886 C 167.95 92.842 167.95 85.662 168.492 80.244 C 168.899 75.774 169.982 71.439 171.337 67.104 C 172.962 62.092 172.692 56.673 172.15 52.61 C 171.743 49.629 170.931 46.785 169.982 43.94 C 168.763 40.147 168.086 35.27 168.086 35.27 C 167.138 32.019 167.95 27.278 169.034 23.079 C 167.544 24.704 166.325 26.872 165.648 29.581 C 165.106 31.884 164.97 34.187 165.377 36.49 C 165.648 38.657 166.189 41.637 167.273 45.024 C 167.95 47.056 168.492 49.088 168.628 51.255 C 169.17 55.861 169.576 63.582 167.815 67.51 C 167.815 67.51 162.396 82.953 165.783 97.448 C 167.544 104.898 168.221 112.619 167.138 120.205 C 166.325 125.759 164.699 131.855 161.719 137.273 C 161.719 137.273 159.552 142.15 162.803 144.859 C 162.938 142.15 163.751 140.389 163.751 140.389 L 169.305 126.436 L 169.305 126.436 Z " fill="rgb(20,19,22)"/><path d=" M 186.644 21.047 C 185.56 18.473 182.987 16.983 180.278 17.118 C 181.903 18.879 183.258 20.505 184.341 22.672 C 185.425 24.84 186.102 27.143 186.509 29.445 C 187.592 35.541 189.895 51.797 190.708 82.817 C 190.708 82.817 191.927 118.85 190.302 138.628 C 192.198 136.054 193.417 132.532 193.553 127.791 C 193.553 128.062 195.72 42.45 186.644 21.047 L 186.644 21.047 Z " fill="rgb(82,79,86)"/><path d=" M 186.644 21.047 C 185.832 19.15 184.07 17.796 182.174 17.254 C 184.341 19.557 186.238 22.402 187.051 25.652 C 187.051 25.652 191.114 42.856 192.198 83.766 C 192.198 83.766 193.282 115.057 192.063 135.377 C 192.875 133.345 193.417 130.771 193.417 127.926 C 193.553 128.062 195.72 42.45 186.644 21.047 L 186.644 21.047 Z " fill="rgb(20,19,22)"/><path d=" M 193.688 79.16 L 194.095 86.746 C 194.095 86.746 205.067 100.834 223.896 110.723 L 224.303 111.806 C 224.303 111.806 205.609 102.324 193.553 87.152 L 193.417 78.754 L 193.688 79.16 L 193.688 79.16 Z " fill="rgb(175,175,175)"/><path d=" M 205.202 97.989 C 205.202 97.989 213.33 105.169 218.478 107.743 C 218.613 107.743 214.008 102.866 205.202 97.989 L 205.202 97.989 Z " fill="rgb(152,152,153)"/><path d=" M 205.202 97.989 L 209.673 92.435 C 209.673 92.435 219.426 100.021 223.761 110.723 L 218.478 107.743 C 218.613 107.743 212.924 102.324 205.202 97.989 L 205.202 97.989 Z " fill="rgb(228,232,235)"/></g><defs><filter id="L8myOAcxdcSrIVEN8W5tSkhBQhCBup5J" x="-200%" y="-200%" width="400%" height="400%" filterUnits="objectBoundingBox" color-interpolation-filters="sRGB"><feGaussianBlur xmlns="http://www.w3.org/2000/svg" in="SourceGraphic" stdDeviation="2.146804531419514"/><feOffset xmlns="http://www.w3.org/2000/svg" dx="0" dy="0" result="pf_100_offsetBlur"/><feFlood xmlns="http://www.w3.org/2000/svg" flood-color="#000000" flood-opacity="0.65"/><feComposite xmlns="http://www.w3.org/2000/svg" in2="pf_100_offsetBlur" operator="in" result="pf_100_dropShadow"/><feBlend xmlns="http://www.w3.org/2000/svg" in="SourceGraphic" in2="pf_100_dropShadow" mode="normal"/></filter></defs><g filter="url(#L8myOAcxdcSrIVEN8W5tSkhBQhCBup5J)" style="mix-blend-mode:normal;" opacity="0.73"><g transform="matrix(1,0,0,1,37,219.546)"><text transform="matrix(1,0,0,1,23.012,80.472)" style="font-family:'Abel';font-weight:400;font-size:46px;font-style:normal;fill:#000000;stroke:#000000;stroke-width:3;">StubNotes</text></g></g></g></svg>